<?xml version="1.0" encoding="UTF-8"?>
<svg version="1.1" baseProfile="tiny" xmlns="http://www.w3.org/2000/svg" width="99" height="99">
<rect shape-rendering="optimizeSpeed"  x="0" y="0" width="99" height="99" fill="white" />
<rect shape-rendering="optimizeSpeed"  x="0" y="0" width="3" height="3" fill="black" />
<rect shape-rendering="optimizeSpeed"  x="3" y="0" width="3" height="3" fill="black" />
<rect shape-rendering="optimizeSpeed"  x="6" y="0" width="3" height="3" fill="black" />
<rect shape-rendering="optimizeSpeed"  x="9" y="0" width="3" height="3" fill="black" />
<rect shape-rendering="optimizeSpeed"  x="12" y="0" width="3" height="3" fill="black" />
<rect shape-rendering="optimizeSpeed"  x="15" y="0" width="3" height="3" fill="black" />
<rect shape-rendering="optimizeSpeed"  x="18" y="0" width="3" height="3" fill="black" />
<rect shape-rendering="optimizeSpeed"  x="30" y="0" width="3" height="3" fill="black" />
<rect shape-rendering="optimizeSpeed"  x="36" y="0" width="3" height="3" fill="black" />
<rect shape-rendering="optimizeSpeed"  x="39" y="0" width="3" height="3" fill="black" />
<rect shape-rendering="optimizeSpeed"  x="42" y="0" width="3" height="3" fill="black" />
<rect shape-rendering="optimizeSpeed"  x="45" y="0" width="3" height="3" fill="black" />
<rect shape-rendering="optimizeSpeed"  x="54" y="0" width="3" height="3" fill="black" />
<rect shape-rendering="optimizeSpeed"  x="57" y="0" width="3" height="3" fill="black" />
<rect shape-rendering="optimizeSpeed"  x="60" y="0" width="3" height="3" fill="black" />
<rect shape-rendering="optimizeSpeed"  x="66" y="0" width="3" height="3" fill="black" />
<rect shape-rendering="optimizeSpeed"  x="69" y="0" width="3" height="3" fill="black" />
<rect shape-rendering="optimizeSpeed"  x="78" y="0" width="3" height="3" fill="black" />
<rect shape-rendering="optimizeSpeed"  x="81" y="0" width="3" height="3" fill="black" />
<rect shape-rendering="optimizeSpeed"  x="84" y="0" width="3" height="3" fill="black" />
<rect shape-rendering="optimizeSpeed"  x="87" y="0" width="3" height="3" fill="black" />
<rect shape-rendering="optimizeSpeed"  x="90" y="0" width="3" height="3" fill="black" />
<rect shape-rendering="optimizeSpeed"  x="93" y="0" width="3" height="3" fill="black" />
<rect shape-rendering="optimizeSpeed"  x="96" y="0" width="3" height="3" fill="black" />
<rect shape-rendering="optimizeSpeed"  x="0" y="3" width="3" height="3" fill="black" />
<rect shape-rendering="optimizeSpeed"  x="18" y="3" width="3" height="3" fill="black" />
<rect shape-rendering="optimizeSpeed"  x="24" y="3" width="3" height="3" fill="black" />
<rect shape-rendering="optimizeSpeed"  x="30" y="3" width="3" height="3" fill="black" />
<rect shape-rendering="optimizeSpeed"  x="39" y="3" width="3" height="3" fill="black" />
<rect shape-rendering="optimizeSpeed"  x="42" y="3" width="3" height="3" fill="black" />
<rect shape-rendering="optimizeSpeed"  x="45" y="3" width="3" height="3" fill="black" />
<rect shape-rendering="optimizeSpeed"  x="48" y="3" width="3" height="3" fill="black" />
<rect shape-rendering="optimizeSpeed"  x="54" y="3" width="3" height="3" fill="black" />
<rect shape-rendering="optimizeSpeed"  x="60" y="3" width="3" height="3" fill="black" />
<rect shape-rendering="optimizeSpeed"  x="63" y="3" width="3" height="3" fill="black" />
<rect shape-rendering="optimizeSpeed"  x="72" y="3" width="3" height="3" fill="black" />
<rect shape-rendering="optimizeSpeed"  x="78" y="3" width="3" height="3" fill="black" />
<rect shape-rendering="optimizeSpeed"  x="96" y="3" width="3" height="3" fill="black" />
<rect shape-rendering="optimizeSpeed"  x="0" y="6" width="3" height="3" fill="black" />
<rect shape-rendering="optimizeSpeed"  x="6" y="6" width="3" height="3" fill="black" />
<rect shape-rendering="optimizeSpeed"  x="9" y="6" width="3" height="3" fill="black" />
<rect shape-rendering="optimizeSpeed"  x="12" y="6" width="3" height="3" fill="black" />
<rect shape-rendering="optimizeSpeed"  x="18" y="6" width="3" height="3" fill="black" />
<rect shape-rendering="optimizeSpeed"  x="36" y="6" width="3" height="3" fill="black" />
<rect shape-rendering="optimizeSpeed"  x="39" y="6" width="3" height="3" fill="black" />
<rect shape-rendering="optimizeSpeed"  x="45" y="6" width="3" height="3" fill="black" />
<rect shape-rendering="optimizeSpeed"  x="60" y="6" width="3" height="3" fill="black" />
<rect shape-rendering="optimizeSpeed"  x="63" y="6" width="3" height="3" fill="black" />
<rect shape-rendering="optimizeSpeed"  x="66" y="6" width="3" height="3" fill="black" />
<rect shape-rendering="optimizeSpeed"  x="69" y="6" width="3" height="3" fill="black" />
<rect shape-rendering="optimizeSpeed"  x="72" y="6" width="3" height="3" fill="black" />
<rect shape-rendering="optimizeSpeed"  x="78" y="6" width="3" height="3" fill="black" />
<rect shape-rendering="optimizeSpeed"  x="84" y="6" width="3" height="3" fill="black" />
<rect shape-rendering="optimizeSpeed"  x="87" y="6" width="3" height="3" fill="black" />
<rect shape-rendering="optimizeSpeed"  x="90" y="6" width="3" height="3" fill="black" />
<rect shape-rendering="optimizeSpeed"  x="96" y="6" width="3" height="3" fill="black" />
<rect shape-rendering="optimizeSpeed"  x="0" y="9" width="3" height="3" fill="black" />
<rect shape-rendering="optimizeSpeed"  x="6" y="9" width="3" height="3" fill="black" />
<rect shape-rendering="optimizeSpeed"  x="9" y="9" width="3" height="3" fill="black" />
<rect shape-rendering="optimizeSpeed"  x="12" y="9" width="3" height="3" fill="black" />
<rect shape-rendering="optimizeSpeed"  x="18" y="9" width="3" height="3" fill="black" />
<rect shape-rendering="optimizeSpeed"  x="24" y="9" width="3" height="3" fill="black" />
<rect shape-rendering="optimizeSpeed"  x="27" y="9" width="3" height="3" fill="black" />
<rect shape-rendering="optimizeSpeed"  x="30" y="9" width="3" height="3" fill="black" />
<rect shape-rendering="optimizeSpeed"  x="36" y="9" width="3" height="3" fill="black" />
<rect shape-rendering="optimizeSpeed"  x="42" y="9" width="3" height="3" fill="black" />
<rect shape-rendering="optimizeSpeed"  x="45" y="9" width="3" height="3" fill="black" />
<rect shape-rendering="optimizeSpeed"  x="51" y="9" width="3" height="3" fill="black" />
<rect shape-rendering="optimizeSpeed"  x="72" y="9" width="3" height="3" fill="black" />
<rect shape-rendering="optimizeSpeed"  x="78" y="9" width="3" height="3" fill="black" />
<rect shape-rendering="optimizeSpeed"  x="84" y="9" width="3" height="3" fill="black" />
<rect shape-rendering="optimizeSpeed"  x="87" y="9" width="3" height="3" fill="black" />
<rect shape-rendering="optimizeSpeed"  x="90" y="9" width="3" height="3" fill="black" />
<rect shape-rendering="optimizeSpeed"  x="96" y="9" width="3" height="3" fill="black" />
<rect shape-rendering="optimizeSpeed"  x="0" y="12" width="3" height="3" fill="black" />
<rect shape-rendering="optimizeSpeed"  x="6" y="12" width="3" height="3" fill="black" />
<rect shape-rendering="optimizeSpeed"  x="9" y="12" width="3" height="3" fill="black" />
<rect shape-rendering="optimizeSpeed"  x="12" y="12" width="3" height="3" fill="black" />
<rect shape-rendering="optimizeSpeed"  x="18" y="12" width="3" height="3" fill="black" />
<rect shape-rendering="optimizeSpeed"  x="27" y="12" width="3" height="3" fill="black" />
<rect shape-rendering="optimizeSpeed"  x="45" y="12" width="3" height="3" fill="black" />
<rect shape-rendering="optimizeSpeed"  x="48" y="12" width="3" height="3" fill="black" />
<rect shape-rendering="optimizeSpeed"  x="57" y="12" width="3" height="3" fill="black" />
<rect shape-rendering="optimizeSpeed"  x="60" y="12" width="3" height="3" fill="black" />
<rect shape-rendering="optimizeSpeed"  x="63" y="12" width="3" height="3" fill="black" />
<rect shape-rendering="optimizeSpeed"  x="69" y="12" width="3" height="3" fill="black" />
<rect shape-rendering="optimizeSpeed"  x="78" y="12" width="3" height="3" fill="black" />
<rect shape-rendering="optimizeSpeed"  x="84" y="12" width="3" height="3" fill="black" />
<rect shape-rendering="optimizeSpeed"  x="87" y="12" width="3" height="3" fill="black" />
<rect shape-rendering="optimizeSpeed"  x="90" y="12" width="3" height="3" fill="black" />
<rect shape-rendering="optimizeSpeed"  x="96" y="12" width="3" height="3" fill="black" />
<rect shape-rendering="optimizeSpeed"  x="0" y="15" width="3" height="3" fill="black" />
<rect shape-rendering="optimizeSpeed"  x="18" y="15" width="3" height="3" fill="black" />
<rect shape-rendering="optimizeSpeed"  x="24" y="15" width="3" height="3" fill="black" />
<rect shape-rendering="optimizeSpeed"  x="27" y="15" width="3" height="3" fill="black" />
<rect shape-rendering="optimizeSpeed"  x="33" y="15" width="3" height="3" fill="black" />
<rect shape-rendering="optimizeSpeed"  x="36" y="15" width="3" height="3" fill="black" />
<rect shape-rendering="optimizeSpeed"  x="60" y="15" width="3" height="3" fill="black" />
<rect shape-rendering="optimizeSpeed"  x="63" y="15" width="3" height="3" fill="black" />
<rect shape-rendering="optimizeSpeed"  x="72" y="15" width="3" height="3" fill="black" />
<rect shape-rendering="optimizeSpeed"  x="78" y="15" width="3" height="3" fill="black" />
<rect shape-rendering="optimizeSpeed"  x="96" y="15" width="3" height="3" fill="black" />
<rect shape-rendering="optimizeSpeed"  x="0" y="18" width="3" height="3" fill="black" />
<rect shape-rendering="optimizeSpeed"  x="3" y="18" width="3" height="3" fill="black" />
<rect shape-rendering="optimizeSpeed"  x="6" y="18" width="3" height="3" fill="black" />
<rect shape-rendering="optimizeSpeed"  x="9" y="18" width="3" height="3" fill="black" />
<rect shape-rendering="optimizeSpeed"  x="12" y="18" width="3" height="3" fill="black" />
<rect shape-rendering="optimizeSpeed"  x="15" y="18" width="3" height="3" fill="black" />
<rect shape-rendering="optimizeSpeed"  x="18" y="18" width="3" height="3" fill="black" />
<rect shape-rendering="optimizeSpeed"  x="24" y="18" width="3" height="3" fill="black" />
<rect shape-rendering="optimizeSpeed"  x="30" y="18" width="3" height="3" fill="black" />
<rect shape-rendering="optimizeSpeed"  x="36" y="18" width="3" height="3" fill="black" />
<rect shape-rendering="optimizeSpeed"  x="42" y="18" width="3" height="3" fill="black" />
<rect shape-rendering="optimizeSpeed"  x="48" y="18" width="3" height="3" fill="black" />
<rect shape-rendering="optimizeSpeed"  x="54" y="18" width="3" height="3" fill="black" />
<rect shape-rendering="optimizeSpeed"  x="60" y="18" width="3" height="3" fill="black" />
<rect shape-rendering="optimizeSpeed"  x="66" y="18" width="3" height="3" fill="black" />
<rect shape-rendering="optimizeSpeed"  x="72" y="18" width="3" height="3" fill="black" />
<rect shape-rendering="optimizeSpeed"  x="78" y="18" width="3" height="3" fill="black" />
<rect shape-rendering="optimizeSpeed"  x="81" y="18" width="3" height="3" fill="black" />
<rect shape-rendering="optimizeSpeed"  x="84" y="18" width="3" height="3" fill="black" />
<rect shape-rendering="optimizeSpeed"  x="87" y="18" width="3" height="3" fill="black" />
<rect shape-rendering="optimizeSpeed"  x="90" y="18" width="3" height="3" fill="black" />
<rect shape-rendering="optimizeSpeed"  x="93" y="18" width="3" height="3" fill="black" />
<rect shape-rendering="optimizeSpeed"  x="96" y="18" width="3" height="3" fill="black" />
<rect shape-rendering="optimizeSpeed"  x="27" y="21" width="3" height="3" fill="black" />
<rect shape-rendering="optimizeSpeed"  x="30" y="21" width="3" height="3" fill="black" />
<rect shape-rendering="optimizeSpeed"  x="33" y="21" width="3" height="3" fill="black" />
<rect shape-rendering="optimizeSpeed"  x="42" y="21" width="3" height="3" fill="black" />
<rect shape-rendering="optimizeSpeed"  x="48" y="21" width="3" height="3" fill="black" />
<rect shape-rendering="optimizeSpeed"  x="54" y="21" width="3" height="3" fill="black" />
<rect shape-rendering="optimizeSpeed"  x="57" y="21" width="3" height="3" fill="black" />
<rect shape-rendering="optimizeSpeed"  x="63" y="21" width="3" height="3" fill="black" />
<rect shape-rendering="optimizeSpeed"  x="72" y="21" width="3" height="3" fill="black" />
<rect shape-rendering="optimizeSpeed"  x="0" y="24" width="3" height="3" fill="black" />
<rect shape-rendering="optimizeSpeed"  x="3" y="24" width="3" height="3" fill="black" />
<rect shape-rendering="optimizeSpeed"  x="6" y="24" width="3" height="3" fill="black" />
<rect shape-rendering="optimizeSpeed"  x="9" y="24" width="3" height="3" fill="black" />
<rect shape-rendering="optimizeSpeed"  x="12" y="24" width="3" height="3" fill="black" />
<rect shape-rendering="optimizeSpeed"  x="18" y="24" width="3" height="3" fill="black" />
<rect shape-rendering="optimizeSpeed"  x="21" y="24" width="3" height="3" fill="black" />
<rect shape-rendering="optimizeSpeed"  x="24" y="24" width="3" height="3" fill="black" />
<rect shape-rendering="optimizeSpeed"  x="27" y="24" width="3" height="3" fill="black" />
<rect shape-rendering="optimizeSpeed"  x="33" y="24" width="3" height="3" fill="black" />
<rect shape-rendering="optimizeSpeed"  x="51" y="24" width="3" height="3" fill="black" />
<rect shape-rendering="optimizeSpeed"  x="54" y="24" width="3" height="3" fill="black" />
<rect shape-rendering="optimizeSpeed"  x="60" y="24" width="3" height="3" fill="black" />
<rect shape-rendering="optimizeSpeed"  x="66" y="24" width="3" height="3" fill="black" />
<rect shape-rendering="optimizeSpeed"  x="72" y="24" width="3" height="3" fill="black" />
<rect shape-rendering="optimizeSpeed"  x="75" y="24" width="3" height="3" fill="black" />
<rect shape-rendering="optimizeSpeed"  x="81" y="24" width="3" height="3" fill="black" />
<rect shape-rendering="optimizeSpeed"  x="87" y="24" width="3" height="3" fill="black" />
<rect shape-rendering="optimizeSpeed"  x="93" y="24" width="3" height="3" fill="black" />
<rect shape-rendering="optimizeSpeed"  x="3" y="27" width="3" height="3" fill="black" />
<rect shape-rendering="optimizeSpeed"  x="9" y="27" width="3" height="3" fill="black" />
<rect shape-rendering="optimizeSpeed"  x="24" y="27" width="3" height="3" fill="black" />
<rect shape-rendering="optimizeSpeed"  x="30" y="27" width="3" height="3" fill="black" />
<rect shape-rendering="optimizeSpeed"  x="36" y="27" width="3" height="3" fill="black" />
<rect shape-rendering="optimizeSpeed"  x="39" y="27" width="3" height="3" fill="black" />
<rect shape-rendering="optimizeSpeed"  x="42" y="27" width="3" height="3" fill="black" />
<rect shape-rendering="optimizeSpeed"  x="45" y="27" width="3" height="3" fill="black" />
<rect shape-rendering="optimizeSpeed"  x="54" y="27" width="3" height="3" fill="black" />
<rect shape-rendering="optimizeSpeed"  x="57" y="27" width="3" height="3" fill="black" />
<rect shape-rendering="optimizeSpeed"  x="60" y="27" width="3" height="3" fill="black" />
<rect shape-rendering="optimizeSpeed"  x="63" y="27" width="3" height="3" fill="black" />
<rect shape-rendering="optimizeSpeed"  x="69" y="27" width="3" height="3" fill="black" />
<rect shape-rendering="optimizeSpeed"  x="72" y="27" width="3" height="3" fill="black" />
<rect shape-rendering="optimizeSpeed"  x="78" y="27" width="3" height="3" fill="black" />
<rect shape-rendering="optimizeSpeed"  x="81" y="27" width="3" height="3" fill="black" />
<rect shape-rendering="optimizeSpeed"  x="90" y="27" width="3" height="3" fill="black" />
<rect shape-rendering="optimizeSpeed"  x="96" y="27" width="3" height="3" fill="black" />
<rect shape-rendering="optimizeSpeed"  x="0" y="30" width="3" height="3" fill="black" />
<rect shape-rendering="optimizeSpeed"  x="6" y="30" width="3" height="3" fill="black" />
<rect shape-rendering="optimizeSpeed"  x="12" y="30" width="3" height="3" fill="black" />
<rect shape-rendering="optimizeSpeed"  x="15" y="30" width="3" height="3" fill="black" />
<rect shape-rendering="optimizeSpeed"  x="18" y="30" width="3" height="3" fill="black" />
<rect shape-rendering="optimizeSpeed"  x="30" y="30" width="3" height="3" fill="black" />
<rect shape-rendering="optimizeSpeed"  x="39" y="30" width="3" height="3" fill="black" />
<rect shape-rendering="optimizeSpeed"  x="42" y="30" width="3" height="3" fill="black" />
<rect shape-rendering="optimizeSpeed"  x="45" y="30" width="3" height="3" fill="black" />
<rect shape-rendering="optimizeSpeed"  x="54" y="30" width="3" height="3" fill="black" />
<rect shape-rendering="optimizeSpeed"  x="63" y="30" width="3" height="3" fill="black" />
<rect shape-rendering="optimizeSpeed"  x="66" y="30" width="3" height="3" fill="black" />
<rect shape-rendering="optimizeSpeed"  x="72" y="30" width="3" height="3" fill="black" />
<rect shape-rendering="optimizeSpeed"  x="84" y="30" width="3" height="3" fill="black" />
<rect shape-rendering="optimizeSpeed"  x="90" y="30" width="3" height="3" fill="black" />
<rect shape-rendering="optimizeSpeed"  x="0" y="33" width="3" height="3" fill="black" />
<rect shape-rendering="optimizeSpeed"  x="9" y="33" width="3" height="3" fill="black" />
<rect shape-rendering="optimizeSpeed"  x="24" y="33" width="3" height="3" fill="black" />
<rect shape-rendering="optimizeSpeed"  x="36" y="33" width="3" height="3" fill="black" />
<rect shape-rendering="optimizeSpeed"  x="39" y="33" width="3" height="3" fill="black" />
<rect shape-rendering="optimizeSpeed"  x="45" y="33" width="3" height="3" fill="black" />
<rect shape-rendering="optimizeSpeed"  x="54" y="33" width="3" height="3" fill="black" />
<rect shape-rendering="optimizeSpeed"  x="63" y="33" width="3" height="3" fill="black" />
<rect shape-rendering="optimizeSpeed"  x="81" y="33" width="3" height="3" fill="black" />
<rect shape-rendering="optimizeSpeed"  x="87" y="33" width="3" height="3" fill="black" />
<rect shape-rendering="optimizeSpeed"  x="90" y="33" width="3" height="3" fill="black" />
<rect shape-rendering="optimizeSpeed"  x="93" y="33" width="3" height="3" fill="black" />
<rect shape-rendering="optimizeSpeed"  x="96" y="33" width="3" height="3" fill="black" />
<rect shape-rendering="optimizeSpeed"  x="0" y="36" width="3" height="3" fill="black" />
<rect shape-rendering="optimizeSpeed"  x="6" y="36" width="3" height="3" fill="black" />
<rect shape-rendering="optimizeSpeed"  x="9" y="36" width="3" height="3" fill="black" />
<rect shape-rendering="optimizeSpeed"  x="12" y="36" width="3" height="3" fill="black" />
<rect shape-rendering="optimizeSpeed"  x="18" y="36" width="3" height="3" fill="black" />
<rect shape-rendering="optimizeSpeed"  x="24" y="36" width="3" height="3" fill="black" />
<rect shape-rendering="optimizeSpeed"  x="27" y="36" width="3" height="3" fill="black" />
<rect shape-rendering="optimizeSpeed"  x="30" y="36" width="3" height="3" fill="black" />
<rect shape-rendering="optimizeSpeed"  x="36" y="36" width="3" height="3" fill="black" />
<rect shape-rendering="optimizeSpeed"  x="42" y="36" width="3" height="3" fill="black" />
<rect shape-rendering="optimizeSpeed"  x="45" y="36" width="3" height="3" fill="black" />
<rect shape-rendering="optimizeSpeed"  x="48" y="36" width="3" height="3" fill="black" />
<rect shape-rendering="optimizeSpeed"  x="51" y="36" width="3" height="3" fill="black" />
<rect shape-rendering="optimizeSpeed"  x="66" y="36" width="3" height="3" fill="black" />
<rect shape-rendering="optimizeSpeed"  x="72" y="36" width="3" height="3" fill="black" />
<rect shape-rendering="optimizeSpeed"  x="75" y="36" width="3" height="3" fill="black" />
<rect shape-rendering="optimizeSpeed"  x="84" y="36" width="3" height="3" fill="black" />
<rect shape-rendering="optimizeSpeed"  x="87" y="36" width="3" height="3" fill="black" />
<rect shape-rendering="optimizeSpeed"  x="0" y="39" width="3" height="3" fill="black" />
<rect shape-rendering="optimizeSpeed"  x="3" y="39" width="3" height="3" fill="black" />
<rect shape-rendering="optimizeSpeed"  x="6" y="39" width="3" height="3" fill="black" />
<rect shape-rendering="optimizeSpeed"  x="9" y="39" width="3" height="3" fill="black" />
<rect shape-rendering="optimizeSpeed"  x="21" y="39" width="3" height="3" fill="black" />
<rect shape-rendering="optimizeSpeed"  x="48" y="39" width="3" height="3" fill="black" />
<rect shape-rendering="optimizeSpeed"  x="54" y="39" width="3" height="3" fill="black" />
<rect shape-rendering="optimizeSpeed"  x="57" y="39" width="3" height="3" fill="black" />
<rect shape-rendering="optimizeSpeed"  x="63" y="39" width="3" height="3" fill="black" />
<rect shape-rendering="optimizeSpeed"  x="66" y="39" width="3" height="3" fill="black" />
<rect shape-rendering="optimizeSpeed"  x="69" y="39" width="3" height="3" fill="black" />
<rect shape-rendering="optimizeSpeed"  x="78" y="39" width="3" height="3" fill="black" />
<rect shape-rendering="optimizeSpeed"  x="90" y="39" width="3" height="3" fill="black" />
<rect shape-rendering="optimizeSpeed"  x="93" y="39" width="3" height="3" fill="black" />
<rect shape-rendering="optimizeSpeed"  x="96" y="39" width="3" height="3" fill="black" />
<rect shape-rendering="optimizeSpeed"  x="3" y="42" width="3" height="3" fill="black" />
<rect shape-rendering="optimizeSpeed"  x="9" y="42" width="3" height="3" fill="black" />
<rect shape-rendering="optimizeSpeed"  x="15" y="42" width="3" height="3" fill="black" />
<rect shape-rendering="optimizeSpeed"  x="18" y="42" width="3" height="3" fill="black" />
<rect shape-rendering="optimizeSpeed"  x="21" y="42" width="3" height="3" fill="black" />
<rect shape-rendering="optimizeSpeed"  x="24" y="42" width="3" height="3" fill="black" />
<rect shape-rendering="optimizeSpeed"  x="33" y="42" width="3" height="3" fill="black" />
<rect shape-rendering="optimizeSpeed"  x="36" y="42" width="3" height="3" fill="black" />
<rect shape-rendering="optimizeSpeed"  x="45" y="42" width="3" height="3" fill="black" />
<rect shape-rendering="optimizeSpeed"  x="51" y="42" width="3" height="3" fill="black" />
<rect shape-rendering="optimizeSpeed"  x="54" y="42" width="3" height="3" fill="black" />
<rect shape-rendering="optimizeSpeed"  x="60" y="42" width="3" height="3" fill="black" />
<rect shape-rendering="optimizeSpeed"  x="63" y="42" width="3" height="3" fill="black" />
<rect shape-rendering="optimizeSpeed"  x="66" y="42" width="3" height="3" fill="black" />
<rect shape-rendering="optimizeSpeed"  x="75" y="42" width="3" height="3" fill="black" />
<rect shape-rendering="optimizeSpeed"  x="87" y="42" width="3" height="3" fill="black" />
<rect shape-rendering="optimizeSpeed"  x="90" y="42" width="3" height="3" fill="black" />
<rect shape-rendering="optimizeSpeed"  x="93" y="42" width="3" height="3" fill="black" />
<rect shape-rendering="optimizeSpeed"  x="12" y="45" width="3" height="3" fill="black" />
<rect shape-rendering="optimizeSpeed"  x="21" y="45" width="3" height="3" fill="black" />
<rect shape-rendering="optimizeSpeed"  x="24" y="45" width="3" height="3" fill="black" />
<rect shape-rendering="optimizeSpeed"  x="33" y="45" width="3" height="3" fill="black" />
<rect shape-rendering="optimizeSpeed"  x="42" y="45" width="3" height="3" fill="black" />
<rect shape-rendering="optimizeSpeed"  x="45" y="45" width="3" height="3" fill="black" />
<rect shape-rendering="optimizeSpeed"  x="54" y="45" width="3" height="3" fill="black" />
<rect shape-rendering="optimizeSpeed"  x="60" y="45" width="3" height="3" fill="black" />
<rect shape-rendering="optimizeSpeed"  x="63" y="45" width="3" height="3" fill="black" />
<rect shape-rendering="optimizeSpeed"  x="66" y="45" width="3" height="3" fill="black" />
<rect shape-rendering="optimizeSpeed"  x="75" y="45" width="3" height="3" fill="black" />
<rect shape-rendering="optimizeSpeed"  x="78" y="45" width="3" height="3" fill="black" />
<rect shape-rendering="optimizeSpeed"  x="81" y="45" width="3" height="3" fill="black" />
<rect shape-rendering="optimizeSpeed"  x="84" y="45" width="3" height="3" fill="black" />
<rect shape-rendering="optimizeSpeed"  x="87" y="45" width="3" height="3" fill="black" />
<rect shape-rendering="optimizeSpeed"  x="90" y="45" width="3" height="3" fill="black" />
<rect shape-rendering="optimizeSpeed"  x="93" y="45" width="3" height="3" fill="black" />
<rect shape-rendering="optimizeSpeed"  x="3" y="48" width="3" height="3" fill="black" />
<rect shape-rendering="optimizeSpeed"  x="6" y="48" width="3" height="3" fill="black" />
<rect shape-rendering="optimizeSpeed"  x="9" y="48" width="3" height="3" fill="black" />
<rect shape-rendering="optimizeSpeed"  x="15" y="48" width="3" height="3" fill="black" />
<rect shape-rendering="optimizeSpeed"  x="18" y="48" width="3" height="3" fill="black" />
<rect shape-rendering="optimizeSpeed"  x="21" y="48" width="3" height="3" fill="black" />
<rect shape-rendering="optimizeSpeed"  x="33" y="48" width="3" height="3" fill="black" />
<rect shape-rendering="optimizeSpeed"  x="45" y="48" width="3" height="3" fill="black" />
<rect shape-rendering="optimizeSpeed"  x="48" y="48" width="3" height="3" fill="black" />
<rect shape-rendering="optimizeSpeed"  x="51" y="48" width="3" height="3" fill="black" />
<rect shape-rendering="optimizeSpeed"  x="66" y="48" width="3" height="3" fill="black" />
<rect shape-rendering="optimizeSpeed"  x="72" y="48" width="3" height="3" fill="black" />
<rect shape-rendering="optimizeSpeed"  x="75" y="48" width="3" height="3" fill="black" />
<rect shape-rendering="optimizeSpeed"  x="81" y="48" width="3" height="3" fill="black" />
<rect shape-rendering="optimizeSpeed"  x="84" y="48" width="3" height="3" fill="black" />
<rect shape-rendering="optimizeSpeed"  x="87" y="48" width="3" height="3" fill="black" />
<rect shape-rendering="optimizeSpeed"  x="96" y="48" width="3" height="3" fill="black" />
<rect shape-rendering="optimizeSpeed"  x="3" y="51" width="3" height="3" fill="black" />
<rect shape-rendering="optimizeSpeed"  x="9" y="51" width="3" height="3" fill="black" />
<rect shape-rendering="optimizeSpeed"  x="15" y="51" width="3" height="3" fill="black" />
<rect shape-rendering="optimizeSpeed"  x="21" y="51" width="3" height="3" fill="black" />
<rect shape-rendering="optimizeSpeed"  x="30" y="51" width="3" height="3" fill="black" />
<rect shape-rendering="optimizeSpeed"  x="36" y="51" width="3" height="3" fill="black" />
<rect shape-rendering="optimizeSpeed"  x="39" y="51" width="3" height="3" fill="black" />
<rect shape-rendering="optimizeSpeed"  x="42" y="51" width="3" height="3" fill="black" />
<rect shape-rendering="optimizeSpeed"  x="48" y="51" width="3" height="3" fill="black" />
<rect shape-rendering="optimizeSpeed"  x="51" y="51" width="3" height="3" fill="black" />
<rect shape-rendering="optimizeSpeed"  x="54" y="51" width="3" height="3" fill="black" />
<rect shape-rendering="optimizeSpeed"  x="57" y="51" width="3" height="3" fill="black" />
<rect shape-rendering="optimizeSpeed"  x="60" y="51" width="3" height="3" fill="black" />
<rect shape-rendering="optimizeSpeed"  x="69" y="51" width="3" height="3" fill="black" />
<rect shape-rendering="optimizeSpeed"  x="78" y="51" width="3" height="3" fill="black" />
<rect shape-rendering="optimizeSpeed"  x="90" y="51" width="3" height="3" fill="black" />
<rect shape-rendering="optimizeSpeed"  x="96" y="51" width="3" height="3" fill="black" />
<rect shape-rendering="optimizeSpeed"  x="0" y="54" width="3" height="3" fill="black" />
<rect shape-rendering="optimizeSpeed"  x="3" y="54" width="3" height="3" fill="black" />
<rect shape-rendering="optimizeSpeed"  x="9" y="54" width="3" height="3" fill="black" />
<rect shape-rendering="optimizeSpeed"  x="18" y="54" width="3" height="3" fill="black" />
<rect shape-rendering="optimizeSpeed"  x="21" y="54" width="3" height="3" fill="black" />
<rect shape-rendering="optimizeSpeed"  x="27" y="54" width="3" height="3" fill="black" />
<rect shape-rendering="optimizeSpeed"  x="39" y="54" width="3" height="3" fill="black" />
<rect shape-rendering="optimizeSpeed"  x="42" y="54" width="3" height="3" fill="black" />
<rect shape-rendering="optimizeSpeed"  x="45" y="54" width="3" height="3" fill="black" />
<rect shape-rendering="optimizeSpeed"  x="48" y="54" width="3" height="3" fill="black" />
<rect shape-rendering="optimizeSpeed"  x="51" y="54" width="3" height="3" fill="black" />
<rect shape-rendering="optimizeSpeed"  x="60" y="54" width="3" height="3" fill="black" />
<rect shape-rendering="optimizeSpeed"  x="63" y="54" width="3" height="3" fill="black" />
<rect shape-rendering="optimizeSpeed"  x="66" y="54" width="3" height="3" fill="black" />
<rect shape-rendering="optimizeSpeed"  x="72" y="54" width="3" height="3" fill="black" />
<rect shape-rendering="optimizeSpeed"  x="75" y="54" width="3" height="3" fill="black" />
<rect shape-rendering="optimizeSpeed"  x="81" y="54" width="3" height="3" fill="black" />
<rect shape-rendering="optimizeSpeed"  x="93" y="54" width="3" height="3" fill="black" />
<rect shape-rendering="optimizeSpeed"  x="9" y="57" width="3" height="3" fill="black" />
<rect shape-rendering="optimizeSpeed"  x="21" y="57" width="3" height="3" fill="black" />
<rect shape-rendering="optimizeSpeed"  x="24" y="57" width="3" height="3" fill="black" />
<rect shape-rendering="optimizeSpeed"  x="36" y="57" width="3" height="3" fill="black" />
<rect shape-rendering="optimizeSpeed"  x="39" y="57" width="3" height="3" fill="black" />
<rect shape-rendering="optimizeSpeed"  x="45" y="57" width="3" height="3" fill="black" />
<rect shape-rendering="optimizeSpeed"  x="63" y="57" width="3" height="3" fill="black" />
<rect shape-rendering="optimizeSpeed"  x="66" y="57" width="3" height="3" fill="black" />
<rect shape-rendering="optimizeSpeed"  x="75" y="57" width="3" height="3" fill="black" />
<rect shape-rendering="optimizeSpeed"  x="81" y="57" width="3" height="3" fill="black" />
<rect shape-rendering="optimizeSpeed"  x="90" y="57" width="3" height="3" fill="black" />
<rect shape-rendering="optimizeSpeed"  x="0" y="60" width="3" height="3" fill="black" />
<rect shape-rendering="optimizeSpeed"  x="6" y="60" width="3" height="3" fill="black" />
<rect shape-rendering="optimizeSpeed"  x="12" y="60" width="3" height="3" fill="black" />
<rect shape-rendering="optimizeSpeed"  x="15" y="60" width="3" height="3" fill="black" />
<rect shape-rendering="optimizeSpeed"  x="18" y="60" width="3" height="3" fill="black" />
<rect shape-rendering="optimizeSpeed"  x="24" y="60" width="3" height="3" fill="black" />
<rect shape-rendering="optimizeSpeed"  x="27" y="60" width="3" height="3" fill="black" />
<rect shape-rendering="optimizeSpeed"  x="30" y="60" width="3" height="3" fill="black" />
<rect shape-rendering="optimizeSpeed"  x="36" y="60" width="3" height="3" fill="black" />
<rect shape-rendering="optimizeSpeed"  x="42" y="60" width="3" height="3" fill="black" />
<rect shape-rendering="optimizeSpeed"  x="45" y="60" width="3" height="3" fill="black" />
<rect shape-rendering="optimizeSpeed"  x="51" y="60" width="3" height="3" fill="black" />
<rect shape-rendering="optimizeSpeed"  x="57" y="60" width="3" height="3" fill="black" />
<rect shape-rendering="optimizeSpeed"  x="66" y="60" width="3" height="3" fill="black" />
<rect shape-rendering="optimizeSpeed"  x="75" y="60" width="3" height="3" fill="black" />
<rect shape-rendering="optimizeSpeed"  x="81" y="60" width="3" height="3" fill="black" />
<rect shape-rendering="optimizeSpeed"  x="84" y="60" width="3" height="3" fill="black" />
<rect shape-rendering="optimizeSpeed"  x="96" y="60" width="3" height="3" fill="black" />
<rect shape-rendering="optimizeSpeed"  x="0" y="63" width="3" height="3" fill="black" />
<rect shape-rendering="optimizeSpeed"  x="6" y="63" width="3" height="3" fill="black" />
<rect shape-rendering="optimizeSpeed"  x="9" y="63" width="3" height="3" fill="black" />
<rect shape-rendering="optimizeSpeed"  x="12" y="63" width="3" height="3" fill="black" />
<rect shape-rendering="optimizeSpeed"  x="15" y="63" width="3" height="3" fill="black" />
<rect shape-rendering="optimizeSpeed"  x="30" y="63" width="3" height="3" fill="black" />
<rect shape-rendering="optimizeSpeed"  x="48" y="63" width="3" height="3" fill="black" />
<rect shape-rendering="optimizeSpeed"  x="51" y="63" width="3" height="3" fill="black" />
<rect shape-rendering="optimizeSpeed"  x="54" y="63" width="3" height="3" fill="black" />
<rect shape-rendering="optimizeSpeed"  x="57" y="63" width="3" height="3" fill="black" />
<rect shape-rendering="optimizeSpeed"  x="60" y="63" width="3" height="3" fill="black" />
<rect shape-rendering="optimizeSpeed"  x="69" y="63" width="3" height="3" fill="black" />
<rect shape-rendering="optimizeSpeed"  x="78" y="63" width="3" height="3" fill="black" />
<rect shape-rendering="optimizeSpeed"  x="81" y="63" width="3" height="3" fill="black" />
<rect shape-rendering="optimizeSpeed"  x="90" y="63" width="3" height="3" fill="black" />
<rect shape-rendering="optimizeSpeed"  x="96" y="63" width="3" height="3" fill="black" />
<rect shape-rendering="optimizeSpeed"  x="0" y="66" width="3" height="3" fill="black" />
<rect shape-rendering="optimizeSpeed"  x="9" y="66" width="3" height="3" fill="black" />
<rect shape-rendering="optimizeSpeed"  x="18" y="66" width="3" height="3" fill="black" />
<rect shape-rendering="optimizeSpeed"  x="24" y="66" width="3" height="3" fill="black" />
<rect shape-rendering="optimizeSpeed"  x="33" y="66" width="3" height="3" fill="black" />
<rect shape-rendering="optimizeSpeed"  x="36" y="66" width="3" height="3" fill="black" />
<rect shape-rendering="optimizeSpeed"  x="45" y="66" width="3" height="3" fill="black" />
<rect shape-rendering="optimizeSpeed"  x="51" y="66" width="3" height="3" fill="black" />
<rect shape-rendering="optimizeSpeed"  x="63" y="66" width="3" height="3" fill="black" />
<rect shape-rendering="optimizeSpeed"  x="66" y="66" width="3" height="3" fill="black" />
<rect shape-rendering="optimizeSpeed"  x="75" y="66" width="3" height="3" fill="black" />
<rect shape-rendering="optimizeSpeed"  x="78" y="66" width="3" height="3" fill="black" />
<rect shape-rendering="optimizeSpeed"  x="90" y="66" width="3" height="3" fill="black" />
<rect shape-rendering="optimizeSpeed"  x="93" y="66" width="3" height="3" fill="black" />
<rect shape-rendering="optimizeSpeed"  x="0" y="69" width="3" height="3" fill="black" />
<rect shape-rendering="optimizeSpeed"  x="6" y="69" width="3" height="3" fill="black" />
<rect shape-rendering="optimizeSpeed"  x="9" y="69" width="3" height="3" fill="black" />
<rect shape-rendering="optimizeSpeed"  x="24" y="69" width="3" height="3" fill="black" />
<rect shape-rendering="optimizeSpeed"  x="27" y="69" width="3" height="3" fill="black" />
<rect shape-rendering="optimizeSpeed"  x="30" y="69" width="3" height="3" fill="black" />
<rect shape-rendering="optimizeSpeed"  x="33" y="69" width="3" height="3" fill="black" />
<rect shape-rendering="optimizeSpeed"  x="42" y="69" width="3" height="3" fill="black" />
<rect shape-rendering="optimizeSpeed"  x="45" y="69" width="3" height="3" fill="black" />
<rect shape-rendering="optimizeSpeed"  x="57" y="69" width="3" height="3" fill="black" />
<rect shape-rendering="optimizeSpeed"  x="60" y="69" width="3" height="3" fill="black" />
<rect shape-rendering="optimizeSpeed"  x="63" y="69" width="3" height="3" fill="black" />
<rect shape-rendering="optimizeSpeed"  x="66" y="69" width="3" height="3" fill="black" />
<rect shape-rendering="optimizeSpeed"  x="72" y="69" width="3" height="3" fill="black" />
<rect shape-rendering="optimizeSpeed"  x="78" y="69" width="3" height="3" fill="black" />
<rect shape-rendering="optimizeSpeed"  x="87" y="69" width="3" height="3" fill="black" />
<rect shape-rendering="optimizeSpeed"  x="90" y="69" width="3" height="3" fill="black" />
<rect shape-rendering="optimizeSpeed"  x="0" y="72" width="3" height="3" fill="black" />
<rect shape-rendering="optimizeSpeed"  x="6" y="72" width="3" height="3" fill="black" />
<rect shape-rendering="optimizeSpeed"  x="9" y="72" width="3" height="3" fill="black" />
<rect shape-rendering="optimizeSpeed"  x="12" y="72" width="3" height="3" fill="black" />
<rect shape-rendering="optimizeSpeed"  x="15" y="72" width="3" height="3" fill="black" />
<rect shape-rendering="optimizeSpeed"  x="18" y="72" width="3" height="3" fill="black" />
<rect shape-rendering="optimizeSpeed"  x="27" y="72" width="3" height="3" fill="black" />
<rect shape-rendering="optimizeSpeed"  x="33" y="72" width="3" height="3" fill="black" />
<rect shape-rendering="optimizeSpeed"  x="45" y="72" width="3" height="3" fill="black" />
<rect shape-rendering="optimizeSpeed"  x="51" y="72" width="3" height="3" fill="black" />
<rect shape-rendering="optimizeSpeed"  x="60" y="72" width="3" height="3" fill="black" />
<rect shape-rendering="optimizeSpeed"  x="66" y="72" width="3" height="3" fill="black" />
<rect shape-rendering="optimizeSpeed"  x="72" y="72" width="3" height="3" fill="black" />
<rect shape-rendering="optimizeSpeed"  x="75" y="72" width="3" height="3" fill="black" />
<rect shape-rendering="optimizeSpeed"  x="78" y="72" width="3" height="3" fill="black" />
<rect shape-rendering="optimizeSpeed"  x="81" y="72" width="3" height="3" fill="black" />
<rect shape-rendering="optimizeSpeed"  x="84" y="72" width="3" height="3" fill="black" />
<rect shape-rendering="optimizeSpeed"  x="93" y="72" width="3" height="3" fill="black" />
<rect shape-rendering="optimizeSpeed"  x="24" y="75" width="3" height="3" fill="black" />
<rect shape-rendering="optimizeSpeed"  x="27" y="75" width="3" height="3" fill="black" />
<rect shape-rendering="optimizeSpeed"  x="30" y="75" width="3" height="3" fill="black" />
<rect shape-rendering="optimizeSpeed"  x="36" y="75" width="3" height="3" fill="black" />
<rect shape-rendering="optimizeSpeed"  x="39" y="75" width="3" height="3" fill="black" />
<rect shape-rendering="optimizeSpeed"  x="42" y="75" width="3" height="3" fill="black" />
<rect shape-rendering="optimizeSpeed"  x="51" y="75" width="3" height="3" fill="black" />
<rect shape-rendering="optimizeSpeed"  x="54" y="75" width="3" height="3" fill="black" />
<rect shape-rendering="optimizeSpeed"  x="57" y="75" width="3" height="3" fill="black" />
<rect shape-rendering="optimizeSpeed"  x="60" y="75" width="3" height="3" fill="black" />
<rect shape-rendering="optimizeSpeed"  x="66" y="75" width="3" height="3" fill="black" />
<rect shape-rendering="optimizeSpeed"  x="72" y="75" width="3" height="3" fill="black" />
<rect shape-rendering="optimizeSpeed"  x="84" y="75" width="3" height="3" fill="black" />
<rect shape-rendering="optimizeSpeed"  x="90" y="75" width="3" height="3" fill="black" />
<rect shape-rendering="optimizeSpeed"  x="93" y="75" width="3" height="3" fill="black" />
<rect shape-rendering="optimizeSpeed"  x="0" y="78" width="3" height="3" fill="black" />
<rect shape-rendering="optimizeSpeed"  x="3" y="78" width="3" height="3" fill="black" />
<rect shape-rendering="optimizeSpeed"  x="6" y="78" width="3" height="3" fill="black" />
<rect shape-rendering="optimizeSpeed"  x="9" y="78" width="3" height="3" fill="black" />
<rect shape-rendering="optimizeSpeed"  x="12" y="78" width="3" height="3" fill="black" />
<rect shape-rendering="optimizeSpeed"  x="15" y="78" width="3" height="3" fill="black" />
<rect shape-rendering="optimizeSpeed"  x="18" y="78" width="3" height="3" fill="black" />
<rect shape-rendering="optimizeSpeed"  x="24" y="78" width="3" height="3" fill="black" />
<rect shape-rendering="optimizeSpeed"  x="27" y="78" width="3" height="3" fill="black" />
<rect shape-rendering="optimizeSpeed"  x="39" y="78" width="3" height="3" fill="black" />
<rect shape-rendering="optimizeSpeed"  x="42" y="78" width="3" height="3" fill="black" />
<rect shape-rendering="optimizeSpeed"  x="45" y="78" width="3" height="3" fill="black" />
<rect shape-rendering="optimizeSpeed"  x="48" y="78" width="3" height="3" fill="black" />
<rect shape-rendering="optimizeSpeed"  x="51" y="78" width="3" height="3" fill="black" />
<rect shape-rendering="optimizeSpeed"  x="54" y="78" width="3" height="3" fill="black" />
<rect shape-rendering="optimizeSpeed"  x="60" y="78" width="3" height="3" fill="black" />
<rect shape-rendering="optimizeSpeed"  x="63" y="78" width="3" height="3" fill="black" />
<rect shape-rendering="optimizeSpeed"  x="69" y="78" width="3" height="3" fill="black" />
<rect shape-rendering="optimizeSpeed"  x="72" y="78" width="3" height="3" fill="black" />
<rect shape-rendering="optimizeSpeed"  x="78" y="78" width="3" height="3" fill="black" />
<rect shape-rendering="optimizeSpeed"  x="84" y="78" width="3" height="3" fill="black" />
<rect shape-rendering="optimizeSpeed"  x="87" y="78" width="3" height="3" fill="black" />
<rect shape-rendering="optimizeSpeed"  x="93" y="78" width="3" height="3" fill="black" />
<rect shape-rendering="optimizeSpeed"  x="0" y="81" width="3" height="3" fill="black" />
<rect shape-rendering="optimizeSpeed"  x="18" y="81" width="3" height="3" fill="black" />
<rect shape-rendering="optimizeSpeed"  x="36" y="81" width="3" height="3" fill="black" />
<rect shape-rendering="optimizeSpeed"  x="39" y="81" width="3" height="3" fill="black" />
<rect shape-rendering="optimizeSpeed"  x="48" y="81" width="3" height="3" fill="black" />
<rect shape-rendering="optimizeSpeed"  x="57" y="81" width="3" height="3" fill="black" />
<rect shape-rendering="optimizeSpeed"  x="60" y="81" width="3" height="3" fill="black" />
<rect shape-rendering="optimizeSpeed"  x="63" y="81" width="3" height="3" fill="black" />
<rect shape-rendering="optimizeSpeed"  x="66" y="81" width="3" height="3" fill="black" />
<rect shape-rendering="optimizeSpeed"  x="69" y="81" width="3" height="3" fill="black" />
<rect shape-rendering="optimizeSpeed"  x="72" y="81" width="3" height="3" fill="black" />
<rect shape-rendering="optimizeSpeed"  x="84" y="81" width="3" height="3" fill="black" />
<rect shape-rendering="optimizeSpeed"  x="87" y="81" width="3" height="3" fill="black" />
<rect shape-rendering="optimizeSpeed"  x="90" y="81" width="3" height="3" fill="black" />
<rect shape-rendering="optimizeSpeed"  x="93" y="81" width="3" height="3" fill="black" />
<rect shape-rendering="optimizeSpeed"  x="0" y="84" width="3" height="3" fill="black" />
<rect shape-rendering="optimizeSpeed"  x="6" y="84" width="3" height="3" fill="black" />
<rect shape-rendering="optimizeSpeed"  x="9" y="84" width="3" height="3" fill="black" />
<rect shape-rendering="optimizeSpeed"  x="12" y="84" width="3" height="3" fill="black" />
<rect shape-rendering="optimizeSpeed"  x="18" y="84" width="3" height="3" fill="black" />
<rect shape-rendering="optimizeSpeed"  x="24" y="84" width="3" height="3" fill="black" />
<rect shape-rendering="optimizeSpeed"  x="36" y="84" width="3" height="3" fill="black" />
<rect shape-rendering="optimizeSpeed"  x="42" y="84" width="3" height="3" fill="black" />
<rect shape-rendering="optimizeSpeed"  x="45" y="84" width="3" height="3" fill="black" />
<rect shape-rendering="optimizeSpeed"  x="51" y="84" width="3" height="3" fill="black" />
<rect shape-rendering="optimizeSpeed"  x="57" y="84" width="3" height="3" fill="black" />
<rect shape-rendering="optimizeSpeed"  x="72" y="84" width="3" height="3" fill="black" />
<rect shape-rendering="optimizeSpeed"  x="75" y="84" width="3" height="3" fill="black" />
<rect shape-rendering="optimizeSpeed"  x="78" y="84" width="3" height="3" fill="black" />
<rect shape-rendering="optimizeSpeed"  x="81" y="84" width="3" height="3" fill="black" />
<rect shape-rendering="optimizeSpeed"  x="84" y="84" width="3" height="3" fill="black" />
<rect shape-rendering="optimizeSpeed"  x="96" y="84" width="3" height="3" fill="black" />
<rect shape-rendering="optimizeSpeed"  x="0" y="87" width="3" height="3" fill="black" />
<rect shape-rendering="optimizeSpeed"  x="6" y="87" width="3" height="3" fill="black" />
<rect shape-rendering="optimizeSpeed"  x="9" y="87" width="3" height="3" fill="black" />
<rect shape-rendering="optimizeSpeed"  x="12" y="87" width="3" height="3" fill="black" />
<rect shape-rendering="optimizeSpeed"  x="18" y="87" width="3" height="3" fill="black" />
<rect shape-rendering="optimizeSpeed"  x="24" y="87" width="3" height="3" fill="black" />
<rect shape-rendering="optimizeSpeed"  x="27" y="87" width="3" height="3" fill="black" />
<rect shape-rendering="optimizeSpeed"  x="30" y="87" width="3" height="3" fill="black" />
<rect shape-rendering="optimizeSpeed"  x="48" y="87" width="3" height="3" fill="black" />
<rect shape-rendering="optimizeSpeed"  x="51" y="87" width="3" height="3" fill="black" />
<rect shape-rendering="optimizeSpeed"  x="54" y="87" width="3" height="3" fill="black" />
<rect shape-rendering="optimizeSpeed"  x="57" y="87" width="3" height="3" fill="black" />
<rect shape-rendering="optimizeSpeed"  x="60" y="87" width="3" height="3" fill="black" />
<rect shape-rendering="optimizeSpeed"  x="63" y="87" width="3" height="3" fill="black" />
<rect shape-rendering="optimizeSpeed"  x="75" y="87" width="3" height="3" fill="black" />
<rect shape-rendering="optimizeSpeed"  x="81" y="87" width="3" height="3" fill="black" />
<rect shape-rendering="optimizeSpeed"  x="84" y="87" width="3" height="3" fill="black" />
<rect shape-rendering="optimizeSpeed"  x="87" y="87" width="3" height="3" fill="black" />
<rect shape-rendering="optimizeSpeed"  x="93" y="87" width="3" height="3" fill="black" />
<rect shape-rendering="optimizeSpeed"  x="96" y="87" width="3" height="3" fill="black" />
<rect shape-rendering="optimizeSpeed"  x="0" y="90" width="3" height="3" fill="black" />
<rect shape-rendering="optimizeSpeed"  x="6" y="90" width="3" height="3" fill="black" />
<rect shape-rendering="optimizeSpeed"  x="9" y="90" width="3" height="3" fill="black" />
<rect shape-rendering="optimizeSpeed"  x="12" y="90" width="3" height="3" fill="black" />
<rect shape-rendering="optimizeSpeed"  x="18" y="90" width="3" height="3" fill="black" />
<rect shape-rendering="optimizeSpeed"  x="24" y="90" width="3" height="3" fill="black" />
<rect shape-rendering="optimizeSpeed"  x="27" y="90" width="3" height="3" fill="black" />
<rect shape-rendering="optimizeSpeed"  x="33" y="90" width="3" height="3" fill="black" />
<rect shape-rendering="optimizeSpeed"  x="36" y="90" width="3" height="3" fill="black" />
<rect shape-rendering="optimizeSpeed"  x="45" y="90" width="3" height="3" fill="black" />
<rect shape-rendering="optimizeSpeed"  x="54" y="90" width="3" height="3" fill="black" />
<rect shape-rendering="optimizeSpeed"  x="60" y="90" width="3" height="3" fill="black" />
<rect shape-rendering="optimizeSpeed"  x="63" y="90" width="3" height="3" fill="black" />
<rect shape-rendering="optimizeSpeed"  x="72" y="90" width="3" height="3" fill="black" />
<rect shape-rendering="optimizeSpeed"  x="78" y="90" width="3" height="3" fill="black" />
<rect shape-rendering="optimizeSpeed"  x="87" y="90" width="3" height="3" fill="black" />
<rect shape-rendering="optimizeSpeed"  x="0" y="93" width="3" height="3" fill="black" />
<rect shape-rendering="optimizeSpeed"  x="18" y="93" width="3" height="3" fill="black" />
<rect shape-rendering="optimizeSpeed"  x="24" y="93" width="3" height="3" fill="black" />
<rect shape-rendering="optimizeSpeed"  x="27" y="93" width="3" height="3" fill="black" />
<rect shape-rendering="optimizeSpeed"  x="33" y="93" width="3" height="3" fill="black" />
<rect shape-rendering="optimizeSpeed"  x="42" y="93" width="3" height="3" fill="black" />
<rect shape-rendering="optimizeSpeed"  x="48" y="93" width="3" height="3" fill="black" />
<rect shape-rendering="optimizeSpeed"  x="60" y="93" width="3" height="3" fill="black" />
<rect shape-rendering="optimizeSpeed"  x="63" y="93" width="3" height="3" fill="black" />
<rect shape-rendering="optimizeSpeed"  x="69" y="93" width="3" height="3" fill="black" />
<rect shape-rendering="optimizeSpeed"  x="75" y="93" width="3" height="3" fill="black" />
<rect shape-rendering="optimizeSpeed"  x="81" y="93" width="3" height="3" fill="black" />
<rect shape-rendering="optimizeSpeed"  x="87" y="93" width="3" height="3" fill="black" />
<rect shape-rendering="optimizeSpeed"  x="90" y="93" width="3" height="3" fill="black" />
<rect shape-rendering="optimizeSpeed"  x="0" y="96" width="3" height="3" fill="black" />
<rect shape-rendering="optimizeSpeed"  x="3" y="96" width="3" height="3" fill="black" />
<rect shape-rendering="optimizeSpeed"  x="6" y="96" width="3" height="3" fill="black" />
<rect shape-rendering="optimizeSpeed"  x="9" y="96" width="3" height="3" fill="black" />
<rect shape-rendering="optimizeSpeed"  x="12" y="96" width="3" height="3" fill="black" />
<rect shape-rendering="optimizeSpeed"  x="15" y="96" width="3" height="3" fill="black" />
<rect shape-rendering="optimizeSpeed"  x="18" y="96" width="3" height="3" fill="black" />
<rect shape-rendering="optimizeSpeed"  x="24" y="96" width="3" height="3" fill="black" />
<rect shape-rendering="optimizeSpeed"  x="33" y="96" width="3" height="3" fill="black" />
<rect shape-rendering="optimizeSpeed"  x="51" y="96" width="3" height="3" fill="black" />
<rect shape-rendering="optimizeSpeed"  x="57" y="96" width="3" height="3" fill="black" />
<rect shape-rendering="optimizeSpeed"  x="66" y="96" width="3" height="3" fill="black" />
<rect shape-rendering="optimizeSpeed"  x="69" y="96" width="3" height="3" fill="black" />
<rect shape-rendering="optimizeSpeed"  x="72" y="96" width="3" height="3" fill="black" />
<rect shape-rendering="optimizeSpeed"  x="75" y="96" width="3" height="3" fill="black" />
<rect shape-rendering="optimizeSpeed"  x="93" y="96" width="3" height="3" fill="black" /></svg>